<svg xmlns="http://www.w3.org/2000/svg" xmlns:xlink="http://www.w3.org/1999/xlink" x="0px" y="0px" width="800.053px" height="189.581px" viewBox="0 0 211.68068 50.159973" version="1.1" xml:space="preserve">
  <g>
    <path fill="#706F6F" d="m 211.29278,10.935004 c -3.06886,-1.798985 -7.6898,-2.645565 -10.9703,-2.645565 -8.67746,0 -12.69874,3.880163 -12.69874,9.418214 0,4.762017 3.59799,7.654501 7.51342,9.171294 1.94009,0.705484 4.09182,1.446242 5.71444,1.904806 2.61029,0.740758 3.63325,1.975355 3.63325,3.77434 0,2.257549 -1.58735,3.597971 -5.71443,3.597971 -2.82194,0 -6.52575,-1.128776 -9.17131,-2.645567 l -2.4692,5.502777 c 3.38633,1.940082 7.93671,2.963033 11.71105,2.963033 8.11308,0 12.83982,-4.056533 12.83982,-9.665132 0,-5.326407 -2.82193,-7.195938 -5.9966,-8.571634 -1.23461,-0.493839 -3.52744,-1.234596 -4.72676,-1.587337 -4.05654,-1.128776 -6.24355,-2.151728 -6.24355,-4.832567 0,-1.975357 1.30516,-3.527422 5.74971,-3.527422 3.20995,0 6.34936,1.093501 8.50109,2.328098 z m -33.33418,-2.187 v 26.561477 h -0.81131 L 167.76434,8.748004 h -12.69872 v 32.628641 h 6.87848 V 14.391877 h 0.88185 l 9.27713,26.984768 h 12.69873 V 8.748004 Z m -25.1858,3.844889 c -2.82195,-3.139406 -7.44287,-4.338727 -11.60523,-4.338727 -9.62988,0 -15.48541,5.749695 -15.48541,16.825796 0,10.582262 4.51511,16.825797 15.41486,16.825797 4.05653,0 8.32472,-0.952403 11.21721,-2.645567 l -1.62261,-5.432227 c -2.32811,1.164049 -5.82026,1.940082 -9.10077,1.940082 -6.8432,0 -8.64219,-4.374003 -8.64219,-10.758634 0,-7.442858 3.31578,-11.005552 8.5011,-11.005552 3.06885,0 5.64388,1.340419 7.37231,3.139403 z"></path>
    <path fill="#BE0737" d="m 25.079995,50.159919 c 13.86278,0 25.079993,-11.217193 25.079993,-25.079957 C 50.159988,11.252474 38.942775,0 25.079995,0 11.252487,0 0,11.217198 0,25.079962 0.03527,38.942726 11.252487,50.159919 25.079995,50.159919"></path>
    <polygon fill="#FFFFFF" points="95.8,290.9 90.1,290.9 90.1,353.2 110,353.2 110,347.7 95.8,347.7 " transform="matrix(0.35274252,0,0,0.35274208,-7.689787,-88.53826)"></polygon>
    <path fill="#FFFFFF" d="m 17.108012,20.071024 c 1.657891,0 2.998313,-1.340419 2.998313,-2.998307 0,-1.657888 -1.340422,-2.998308 -2.998313,-2.998308 -1.657889,0 -2.99831,1.34042 -2.99831,2.998308 0,1.657888 1.340421,2.998307 2.99831,2.998307"></path>
    <path fill="#FFFFFF" d="m 26.102947,4.127083 c -0.246919,0 -0.740759,-0.03527 -1.022952,-0.03527 -11.569956,0 -20.988183,9.418212 -20.988183,20.988155 0,5.608596 2.187005,10.864453 6.137721,14.85044 3.950716,3.950711 9.241854,6.137713 14.850462,6.137713 5.608605,0 10.864469,-2.187002 14.850459,-6.137713 3.950716,-3.950711 6.13772,-9.241844 6.13772,-14.85044 V 24.127564 H 45.221592 31.111891 v 1.94008 h 12.980926 v 0.282195 c -0.670212,9.876777 -8.924387,17.742926 -18.977549,17.742926 -5.079493,0 -9.841516,-1.975356 -13.439489,-5.573324 -3.63325,-3.562697 -5.608608,-8.359988 -5.608608,-13.439473 0,-5.079488 1.975358,-9.841505 5.573333,-13.439474 3.597973,-3.59797 8.359998,-5.573324 13.439491,-5.573324 0.211645,0 0.776033,0 1.022952,0.03527 z"></path>
    <path fill="#706F6F" d="m 101.27238,28.960124 h 6.13772 v 5.714423 c -1.12878,0.423291 -3.35106,0.84658 -5.43224,0.84658 -6.772652,0 -9.030204,-3.456872 -9.030204,-10.441165 0,-6.666825 2.151729,-10.617536 8.924384,-10.617536 3.77435,0 5.92608,1.199321 7.68979,3.456872 l 4.69147,-4.303453 c -2.85721,-4.091809 -7.86615,-5.326406 -12.55763,-5.326406 -10.547001,0 -16.120334,5.749696 -16.120334,16.755249 0,10.935003 5.008945,16.861071 16.049784,16.861071 5.07949,0 10.01789,-1.305147 12.69873,-3.174678 V 22.89296 h -13.08674 v 6.067164 z M 69.066987,8.748004 h -7.54869 V 41.376645 H 84.69348 V 35.027288 H 69.066987 Z"></path>
  </g>
</svg>